<mxfile host="app.diagrams.net" agent="Mozilla/5.0 (Windows NT 10.0; Win64; x64) AppleWebKit/537.36 (KHTML, like Gecko) Chrome/132.0.0.0 Safari/537.36" version="28.0.4">
  <diagram name="Page-1" id="E3luE1ImO6_G97NC6HWJ">
    <mxGraphModel dx="1367" dy="556" grid="1" gridSize="10" guides="1" tooltips="1" connect="1" arrows="1" fold="1" page="1" pageScale="1" pageWidth="1400" pageHeight="850" math="0" shadow="0">
      <root>
        <mxCell id="0" />
        <mxCell id="1" parent="0" />
        <mxCell id="zoCf65Lv6c-KYMwHGVU1-4" value="" style="edgeStyle=orthogonalEdgeStyle;rounded=0;orthogonalLoop=1;jettySize=auto;html=1;" edge="1" parent="1" source="zoCf65Lv6c-KYMwHGVU1-2" target="zoCf65Lv6c-KYMwHGVU1-3">
          <mxGeometry relative="1" as="geometry" />
        </mxCell>
        <mxCell id="zoCf65Lv6c-KYMwHGVU1-2" value="Consolidated Status Report per Program" style="rounded=1;whiteSpace=wrap;html=1;" vertex="1" parent="1">
          <mxGeometry x="80" y="238" width="120" height="60" as="geometry" />
        </mxCell>
        <mxCell id="zoCf65Lv6c-KYMwHGVU1-6" value="" style="edgeStyle=orthogonalEdgeStyle;rounded=0;orthogonalLoop=1;jettySize=auto;html=1;" edge="1" parent="1" source="zoCf65Lv6c-KYMwHGVU1-3" target="zoCf65Lv6c-KYMwHGVU1-5">
          <mxGeometry relative="1" as="geometry" />
        </mxCell>
        <mxCell id="zoCf65Lv6c-KYMwHGVU1-3" value="EFD Focal per program cleans data" style="rounded=1;whiteSpace=wrap;html=1;" vertex="1" parent="1">
          <mxGeometry x="240" y="238" width="120" height="60" as="geometry" />
        </mxCell>
        <mxCell id="zoCf65Lv6c-KYMwHGVU1-8" value="" style="edgeStyle=orthogonalEdgeStyle;rounded=0;orthogonalLoop=1;jettySize=auto;html=1;" edge="1" parent="1" source="zoCf65Lv6c-KYMwHGVU1-5" target="zoCf65Lv6c-KYMwHGVU1-7">
          <mxGeometry relative="1" as="geometry" />
        </mxCell>
        <mxCell id="zoCf65Lv6c-KYMwHGVU1-5" value="EFD Focal manually separate per region" style="rounded=1;whiteSpace=wrap;html=1;" vertex="1" parent="1">
          <mxGeometry x="400" y="238" width="120" height="60" as="geometry" />
        </mxCell>
        <mxCell id="zoCf65Lv6c-KYMwHGVU1-10" value="" style="edgeStyle=orthogonalEdgeStyle;rounded=0;orthogonalLoop=1;jettySize=auto;html=1;" edge="1" parent="1" source="zoCf65Lv6c-KYMwHGVU1-7" target="zoCf65Lv6c-KYMwHGVU1-9">
          <mxGeometry relative="1" as="geometry" />
        </mxCell>
        <mxCell id="zoCf65Lv6c-KYMwHGVU1-7" value="Upload Status Report to folders per region" style="rounded=1;whiteSpace=wrap;html=1;" vertex="1" parent="1">
          <mxGeometry x="570" y="238" width="120" height="60" as="geometry" />
        </mxCell>
        <mxCell id="zoCf65Lv6c-KYMwHGVU1-12" value="" style="edgeStyle=orthogonalEdgeStyle;rounded=0;orthogonalLoop=1;jettySize=auto;html=1;" edge="1" parent="1" source="zoCf65Lv6c-KYMwHGVU1-9" target="zoCf65Lv6c-KYMwHGVU1-11">
          <mxGeometry relative="1" as="geometry" />
        </mxCell>
        <mxCell id="zoCf65Lv6c-KYMwHGVU1-9" value="Area Managers share folder to Regional Engineers" style="rounded=1;whiteSpace=wrap;html=1;" vertex="1" parent="1">
          <mxGeometry x="730" y="238" width="120" height="60" as="geometry" />
        </mxCell>
        <mxCell id="zoCf65Lv6c-KYMwHGVU1-14" value="" style="edgeStyle=orthogonalEdgeStyle;rounded=0;orthogonalLoop=1;jettySize=auto;html=1;" edge="1" parent="1" source="zoCf65Lv6c-KYMwHGVU1-11" target="zoCf65Lv6c-KYMwHGVU1-13">
          <mxGeometry relative="1" as="geometry" />
        </mxCell>
        <mxCell id="zoCf65Lv6c-KYMwHGVU1-11" value="Regional Engineers cascade Excel files to Division Engineers" style="rounded=1;whiteSpace=wrap;html=1;" vertex="1" parent="1">
          <mxGeometry x="890" y="238" width="120" height="60" as="geometry" />
        </mxCell>
        <mxCell id="zoCf65Lv6c-KYMwHGVU1-16" value="" style="edgeStyle=orthogonalEdgeStyle;rounded=0;orthogonalLoop=1;jettySize=auto;html=1;" edge="1" parent="1" source="zoCf65Lv6c-KYMwHGVU1-13" target="zoCf65Lv6c-KYMwHGVU1-15">
          <mxGeometry relative="1" as="geometry" />
        </mxCell>
        <mxCell id="zoCf65Lv6c-KYMwHGVU1-13" value="Division Engineers fill-up the cascaded Excel file&amp;nbsp;" style="rounded=1;whiteSpace=wrap;html=1;" vertex="1" parent="1">
          <mxGeometry x="1050" y="238" width="120" height="60" as="geometry" />
        </mxCell>
        <mxCell id="zoCf65Lv6c-KYMwHGVU1-18" value="" style="edgeStyle=orthogonalEdgeStyle;rounded=0;orthogonalLoop=1;jettySize=auto;html=1;" edge="1" parent="1" source="zoCf65Lv6c-KYMwHGVU1-15" target="zoCf65Lv6c-KYMwHGVU1-17">
          <mxGeometry relative="1" as="geometry" />
        </mxCell>
        <mxCell id="zoCf65Lv6c-KYMwHGVU1-15" value="Division Engineers transmits filled-up files to Regional Engineer" style="rounded=1;whiteSpace=wrap;html=1;" vertex="1" parent="1">
          <mxGeometry x="1210" y="238" width="120" height="60" as="geometry" />
        </mxCell>
        <mxCell id="zoCf65Lv6c-KYMwHGVU1-20" value="" style="edgeStyle=orthogonalEdgeStyle;rounded=0;orthogonalLoop=1;jettySize=auto;html=1;" edge="1" parent="1" source="zoCf65Lv6c-KYMwHGVU1-17" target="zoCf65Lv6c-KYMwHGVU1-19">
          <mxGeometry relative="1" as="geometry" />
        </mxCell>
        <mxCell id="zoCf65Lv6c-KYMwHGVU1-17" value="Regional Engineer reconsolidates all Excel files" style="rounded=1;whiteSpace=wrap;html=1;" vertex="1" parent="1">
          <mxGeometry x="1210" y="328" width="120" height="60" as="geometry" />
        </mxCell>
        <mxCell id="zoCf65Lv6c-KYMwHGVU1-22" value="" style="edgeStyle=orthogonalEdgeStyle;rounded=0;orthogonalLoop=1;jettySize=auto;html=1;" edge="1" parent="1" source="zoCf65Lv6c-KYMwHGVU1-19" target="zoCf65Lv6c-KYMwHGVU1-21">
          <mxGeometry relative="1" as="geometry" />
        </mxCell>
        <mxCell id="zoCf65Lv6c-KYMwHGVU1-19" value="Regional Engineer transmits consolidated file to EFD" style="rounded=1;whiteSpace=wrap;html=1;" vertex="1" parent="1">
          <mxGeometry x="1050" y="328" width="120" height="60" as="geometry" />
        </mxCell>
        <mxCell id="zoCf65Lv6c-KYMwHGVU1-24" value="" style="edgeStyle=orthogonalEdgeStyle;rounded=0;orthogonalLoop=1;jettySize=auto;html=1;" edge="1" parent="1" source="zoCf65Lv6c-KYMwHGVU1-21" target="zoCf65Lv6c-KYMwHGVU1-23">
          <mxGeometry relative="1" as="geometry" />
        </mxCell>
        <mxCell id="zoCf65Lv6c-KYMwHGVU1-21" value="EFD Focal per program consolidates all regions" style="rounded=1;whiteSpace=wrap;html=1;" vertex="1" parent="1">
          <mxGeometry x="890" y="328" width="120" height="60" as="geometry" />
        </mxCell>
        <mxCell id="zoCf65Lv6c-KYMwHGVU1-23" value="EFD Postprocesses all status reports" style="rounded=1;whiteSpace=wrap;html=1;" vertex="1" parent="1">
          <mxGeometry x="730" y="328" width="120" height="60" as="geometry" />
        </mxCell>
        <mxCell id="zoCf65Lv6c-KYMwHGVU1-25" value="Process takes ~2.5 days for 3 people or 7.5 man-days &lt;font style=&quot;font-size: 11px;&quot;&gt;(excluding Division/Regional Engineers filling-up the files)&lt;/font&gt;" style="text;html=1;align=center;verticalAlign=middle;whiteSpace=wrap;rounded=0;fontStyle=1;fillColor=#f8cecc;strokeColor=#b85450;" vertex="1" parent="1">
          <mxGeometry x="400" y="335.5" width="310" height="45" as="geometry" />
        </mxCell>
        <mxCell id="zoCf65Lv6c-KYMwHGVU1-28" value="Previous protocol" style="rounded=0;whiteSpace=wrap;html=1;fillColor=#f8cecc;strokeColor=#b85450;fontStyle=1" vertex="1" parent="1">
          <mxGeometry x="60" y="190" width="160" height="30" as="geometry" />
        </mxCell>
        <mxCell id="zoCf65Lv6c-KYMwHGVU1-29" value="Current protocol" style="rounded=0;whiteSpace=wrap;html=1;fillColor=#d5e8d4;strokeColor=#82b366;fontStyle=1" vertex="1" parent="1">
          <mxGeometry x="60" y="490" width="160" height="30" as="geometry" />
        </mxCell>
        <mxCell id="zoCf65Lv6c-KYMwHGVU1-30" value="" style="edgeStyle=orthogonalEdgeStyle;rounded=0;orthogonalLoop=1;jettySize=auto;html=1;" edge="1" parent="1" source="zoCf65Lv6c-KYMwHGVU1-31" target="zoCf65Lv6c-KYMwHGVU1-33">
          <mxGeometry relative="1" as="geometry" />
        </mxCell>
        <mxCell id="zoCf65Lv6c-KYMwHGVU1-31" value="Consolidated Status Report per Program" style="rounded=1;whiteSpace=wrap;html=1;" vertex="1" parent="1">
          <mxGeometry x="80" y="543" width="120" height="60" as="geometry" />
        </mxCell>
        <mxCell id="zoCf65Lv6c-KYMwHGVU1-32" value="" style="edgeStyle=orthogonalEdgeStyle;rounded=0;orthogonalLoop=1;jettySize=auto;html=1;" edge="1" parent="1" source="zoCf65Lv6c-KYMwHGVU1-33" target="zoCf65Lv6c-KYMwHGVU1-34">
          <mxGeometry relative="1" as="geometry" />
        </mxCell>
        <mxCell id="zoCf65Lv6c-KYMwHGVU1-33" value="Automated data cleaning and data disaggregation per region using Python" style="rounded=1;whiteSpace=wrap;html=1;" vertex="1" parent="1">
          <mxGeometry x="240" y="543" width="150" height="60" as="geometry" />
        </mxCell>
        <mxCell id="zoCf65Lv6c-KYMwHGVU1-36" value="" style="edgeStyle=orthogonalEdgeStyle;rounded=0;orthogonalLoop=1;jettySize=auto;html=1;entryX=0;entryY=0.5;entryDx=0;entryDy=0;" edge="1" parent="1" source="zoCf65Lv6c-KYMwHGVU1-34" target="zoCf65Lv6c-KYMwHGVU1-37">
          <mxGeometry relative="1" as="geometry">
            <mxPoint x="600" y="573" as="targetPoint" />
          </mxGeometry>
        </mxCell>
        <mxCell id="zoCf65Lv6c-KYMwHGVU1-34" value="Upload to folders per region" style="rounded=1;whiteSpace=wrap;html=1;" vertex="1" parent="1">
          <mxGeometry x="420" y="543" width="120" height="60" as="geometry" />
        </mxCell>
        <mxCell id="zoCf65Lv6c-KYMwHGVU1-40" value="" style="edgeStyle=orthogonalEdgeStyle;rounded=0;orthogonalLoop=1;jettySize=auto;html=1;" edge="1" parent="1" source="zoCf65Lv6c-KYMwHGVU1-37" target="zoCf65Lv6c-KYMwHGVU1-39">
          <mxGeometry relative="1" as="geometry" />
        </mxCell>
        <mxCell id="zoCf65Lv6c-KYMwHGVU1-37" value="Area Managers share folder to Division Engineers with attention to Regional Engineers" style="rounded=1;whiteSpace=wrap;html=1;" vertex="1" parent="1">
          <mxGeometry x="570" y="543" width="200" height="60" as="geometry" />
        </mxCell>
        <mxCell id="zoCf65Lv6c-KYMwHGVU1-42" value="" style="edgeStyle=orthogonalEdgeStyle;rounded=0;orthogonalLoop=1;jettySize=auto;html=1;" edge="1" parent="1" source="zoCf65Lv6c-KYMwHGVU1-39" target="zoCf65Lv6c-KYMwHGVU1-41">
          <mxGeometry relative="1" as="geometry" />
        </mxCell>
        <mxCell id="zoCf65Lv6c-KYMwHGVU1-39" value="Division Engineers fill-up Excel files" style="rounded=1;whiteSpace=wrap;html=1;" vertex="1" parent="1">
          <mxGeometry x="800" y="543" width="140" height="60" as="geometry" />
        </mxCell>
        <mxCell id="zoCf65Lv6c-KYMwHGVU1-45" style="edgeStyle=orthogonalEdgeStyle;rounded=0;orthogonalLoop=1;jettySize=auto;html=1;entryX=0;entryY=0.5;entryDx=0;entryDy=0;" edge="1" parent="1" source="zoCf65Lv6c-KYMwHGVU1-41" target="zoCf65Lv6c-KYMwHGVU1-44">
          <mxGeometry relative="1" as="geometry" />
        </mxCell>
        <mxCell id="zoCf65Lv6c-KYMwHGVU1-41" value="EFD auto-consolidates thru Power Query" style="rounded=1;whiteSpace=wrap;html=1;" vertex="1" parent="1">
          <mxGeometry x="980" y="543" width="140" height="60" as="geometry" />
        </mxCell>
        <mxCell id="zoCf65Lv6c-KYMwHGVU1-44" value="EFD Postprocesses all status reports" style="rounded=1;whiteSpace=wrap;html=1;" vertex="1" parent="1">
          <mxGeometry x="1150" y="543" width="120" height="60" as="geometry" />
        </mxCell>
        <mxCell id="zoCf65Lv6c-KYMwHGVU1-46" value="Process takes ~0.5 days for one person or 0.5 man-days&lt;div&gt;&lt;span style=&quot;font-size: 11px;&quot;&gt;(excluding Division/Regional Engineers filling-up the files)&lt;/span&gt;&lt;/div&gt;" style="text;html=1;align=center;verticalAlign=middle;whiteSpace=wrap;rounded=0;fontStyle=1;fillColor=#d5e8d4;strokeColor=#82b366;" vertex="1" parent="1">
          <mxGeometry x="940" y="628" width="360" height="45" as="geometry" />
        </mxCell>
        <mxCell id="zoCf65Lv6c-KYMwHGVU1-47" value="&lt;font style=&quot;font-size: 17px;&quot;&gt;Protocol for Disseminating and Accomplishing the Weekly/Monthly Status Report&amp;nbsp;&amp;nbsp;&lt;/font&gt;" style="rounded=1;whiteSpace=wrap;html=1;fillColor=#dae8fc;strokeColor=#6c8ebf;" vertex="1" parent="1">
          <mxGeometry x="375" y="50" width="650" height="60" as="geometry" />
        </mxCell>
      </root>
    </mxGraphModel>
  </diagram>
</mxfile>
